<svg aria-hidden="true" style="position: absolute; width: 0; height: 0; overflow: hidden;" version="1.1" xmlns="http://www.w3.org/2000/svg" xmlns:xlink="http://www.w3.org/1999/xlink">
    <defs>
        <symbol id="search" xmlns="http://www.w3.org/2000/svg" viewBox="0 0 24 24">
            <path d="M15.5 15h-.79l-.28-.27A6.471 6.471 0 0 0 16 10.5 6.5 6.5 0 1 0 9.5 17c1.61 0 3.09-.59 4.23-1.57l.27.28v.79l5 4.99L20.49 20l-4.99-5Zm-6 0C7.01 15 5 12.99 5 10.5S7.01 6 9.5 6 14 8.01 14 10.5 11.99 15 9.5 15Z"/>
        </symbol>
        <symbol id="back" xmlns="http://www.w3.org/2000/svg" viewBox="0 0 24 24">
            <path d="M20 11H7.83l5.59-5.59L12 4l-8 8 8 8 1.41-1.41L7.83 13H20v-2Z"/>
        </symbol>
    </defs>
</svg>
